<?xml version="1.0" encoding="UTF-8" standalone="no"?>
<svg
        xmlns="http://www.w3.org/2000/svg"
        width="100px"
        height="100px"
        viewBox="0 0 100 100"
        version="1.1"
>
    <style>
        path {

        fill:black;
        stroke:none;

        }
    </style>
    <defs>
        <mask id="hole">
            <rect width="100%" height="100%" fill="white"/>
            <path
                    transform="scale(1.6) translate(7,7)"
                    d="M13.05 42Q11.85 42 10.95 41.1Q10.05 40.2 10.05 39V10.5H8V7.5H17.4V6H30.6V7.5H40V10.5H37.95V39Q37.95 40.2 37.05 41.1Q36.15 42 34.95 42ZM34.95 10.5H13.05V39Q13.05 39 13.05 39Q13.05 39 13.05 39H34.95Q34.95 39 34.95 39Q34.95 39 34.95 39ZM18.35 34.7H21.35V14.75H18.35ZM26.65 34.7H29.65V14.75H26.65ZM13.05 10.5V39Q13.05 39 13.05 39Q13.05 39 13.05 39Q13.05 39 13.05 39Q13.05 39 13.05 39Z"
            />
        </mask>
    </defs>
    <g id="layer1">
        <circle
                cx="50"
                cy="50"
                style="fill: #ff0000"
                r="50"
                mask="url(#hole)"
        />
    </g>
</svg>
